<svg xmlns="http://www.w3.org/2000/svg" width="187.107" height="166.275" viewBox="0 0 187.107 166.275"><circle cx="27.185" cy="27.185" r="27.185" transform="translate(0 52.921)" fill="#3f3d56"/><path d="M395.961,345.274,381.27,419.13l-70.558,26.326a75.312,75.312,0,0,1,85.25-100.182Z" transform="translate(-243.632 -281.9)" fill="#f2f2f2"/><path d="M275.26,797.043c-2.309,4.281-7.208,6.12-7.208,6.12s-1.157-5.1,1.152-9.385,7.208-6.12,7.208-6.12S277.569,792.761,275.26,797.043Z" transform="translate(-116.739 -637.027)" fill="#3f3d56"/><path d="M242.057,820.537c-4.168,2.508-5.773,7.489-5.773,7.489s5.153.915,9.321-1.592,5.773-7.489,5.773-7.489S246.225,818.029,242.057,820.537Z" transform="translate(-85.123 -661.93)" fill="#6c63ff"/><path d="M331.542,563.658c-6.53-17.176-7.474-39.4-6.1-63.722q.03-.576.066-1.155.309-5.259.752-10.636H312q.291,5.583.414,11.058c.006.242.01.482.016.72.456,23.371-1.637,45.086-8.453,63.736Z" transform="translate(-178.819 -397.383)" fill="#3f3d56"/><path d="M410.034,735.728q6.68-1.132,12.849-1.944l-1.626-3.152c.548-.19,2.957,1.615,2.957,1.615l-2.133-9.15c2.757.333,4.159,9.675,4.159,9.675l3.08-3.159-1.491,3.551a284.422,284.422,0,0,1,32.6-2.052l-1.391-2.7c.548-.19,2.957,1.615,2.957,1.615l-2.133-9.15c2.757.333,4.159,9.675,4.159,9.675l3.08-3.159-1.58,3.761a183.173,183.173,0,0,1,18.74,1.273c-1.407-4.2-6.189-8.2-6.189-8.2,3.651,1.086,5.567,2.906,6.567,4.6a73.689,73.689,0,0,0-4.259-25.462s7.547,16.423,6.584,27.447l-.115,1.958c6.4.916,8.915,3.069,8.915,3.069Z" transform="translate(-364.238 -569.588)" fill="#3f3d56"/><path d="M131.97,97.311c.5,28.7,21.522,38.355,47.243,37.911q.9-.015,1.783-.047,1.787-.062,3.537-.194c23.191-1.746,41.046-12.591,40.585-39.279-.478-27.619-45.49-59.1-48.77-61.626C176.345,34.075,131.474,68.617,131.97,97.311Z" transform="translate(-38.02 -34.075)" fill="#6c63ff"/><circle cx="5.724" cy="5.724" r="5.724" transform="translate(104.194 119.156)" fill="#2f2e41"/><circle cx="5.724" cy="5.724" r="5.724" transform="translate(110.395 111.619)" fill="#2f2e41"/><path d="M458.416,623.409a5.724,5.724,0,0,1-8.839-3.006,5.724,5.724,0,1,0,11.166-2.347A5.722,5.722,0,0,1,458.416,623.409Z" transform="translate(-337.359 -501.326)" fill="#2f2e41"/><circle cx="4.675" cy="4.675" r="4.675" transform="translate(103.765 122.447)" fill="#ffb8b8"/><path d="M487.63,682.261s1.908,2.862,1.622,4.1c0,0-1.24.573-1.24.763a18.712,18.712,0,0,1-1.145,2l-1.336,1.813-.572,2.385h2.767l3.053-2.385,2.958-3.244s2-.954,3.053-.191l.572.477a19.508,19.508,0,0,0-2.957-3.244,6.861,6.861,0,0,1-1.526-4.2Z" transform="translate(-380.812 -551.323)" fill="#ffb8b8"/><path d="M533.512,709.18a6.53,6.53,0,0,0-2.671,3.053c-.763,2-4.2,8.681-4.2,8.681a34.429,34.429,0,0,0-.1,4.484c.191.191,2.385-1.908,2.767-2.48s1.908-7.441,1.908-7.441l2.48-4.007.477-2.29Z" transform="translate(-425.931 -574.236)" fill="#ffb8b8"/><path d="M570.864,731.945l-.859-.286s-5.247-3.244-5.533-4.675-4.484-6.2-4.579-3.625,3.053,5.438,3.053,5.438,6.869,9.635,7.25,6.869Z" transform="translate(-469.293 -584.981)" fill="#ffb8b8"/><path d="M378.051,717.966s.1,2.671,3.816,3.625c0,0,3.816,5.152,4.2,7.441s10.4,14.024,10.4,14.024,9.254,1.145,9.254,0-7.727-2.1-7.727-2.1-8.109-12.02-8.491-13.642-4.007-13.642-5.724-13.547c0,0-1.622-.763-2.576-.191S378.051,717.966,378.051,717.966Z" transform="translate(-267.798 -577.584)" fill="#ffb8b8"/><path d="M597.343,750.029s-6.678-8.968-8.109-9.54-3.244-.954-4.293.382-13.451,16.981-13.451,16.981-4.388,4.484-6.583,3.625c0,0-1.145.954,1.526,1.145a15.922,15.922,0,0,0,5.152-.572s1.622.286,2.766.572,2.576.382,2.48-.382l-.382-3.053s9.826-8.109,10.112-11.543c0,0-.191-1.622,0-1.431s4.2,4.484,6.01,5.438a51.265,51.265,0,0,0,6.3,2.29Z" transform="translate(-498.253 -598.866)" fill="#ffb8b8"/><path d="M597.343,750.029s-6.678-8.968-8.109-9.54-3.244-.954-4.293.382-13.451,16.981-13.451,16.981-4.388,4.484-6.583,3.625c0,0-1.145.954,1.526,1.145a15.922,15.922,0,0,0,5.152-.572s1.622.286,2.766.572,2.576.382,2.48-.382l-.382-3.053s9.826-8.109,10.112-11.543c0,0-.191-1.622,0-1.431s4.2,4.484,6.01,5.438a51.265,51.265,0,0,0,6.3,2.29Z" transform="translate(-498.253 -598.866)" opacity="0.1"/><path d="M605.772,774.669s-8.777-3.339-9.922-4.1-5.247-2.29-7.346-.572-12.307,9.635-15.741,10.4-9.349,2.576-9.349,2.576-3.816.286.286,1.908c0,0,5.056.477,5.915,1.24s3.72,1.717,3.911.477.763-2.862,1.813-3.053,13.642-3.625,15.55-7.346a35.256,35.256,0,0,1,6.964,5.152c2.671,2.767,8.968,4.293,8.968,4.293Z" transform="translate(-505.632 -622.266)" fill="#ffb8b8"/><path d="M509.552,781.247s-4.182,1.111-4.524.7-2.154,1.877-.437,6.456,1.336,6.678,2.29,7.346,5.438-.382,6.773.1,3.053.859,3.625-1.908,2-7.632,1.717-8.3a12.781,12.781,0,0,0-1.813-2.194l-3.148-1.622Z" transform="translate(-406.264 -631.898)" fill="#2f2e41"/><path d="M494.111,712.662s-.664-1.86-1.9-2.209a3.164,3.164,0,0,1-.308-.1,2.349,2.349,0,0,0-2.9.831c-1.24,1.717-2.385,3.721-1.431,4.865a7.653,7.653,0,0,0,2.862,1.813l1.431,1.813s-2.862,5.152-2.862,7.537c0,0-.1.954-1.717-.763s-8.259-2.9-8.259-2.9,1.39-1.865.341-2.724-2.01-4.278.474-5.621l4.248-6.256.763.1s-1,.906-1.1,1.383-3.911,3.816-2.385,4.388,4.007-.668,5.056-2.1a10.374,10.374,0,0,1,2.408-2.544,3.567,3.567,0,0,1,3.568-.192l.32.16h0a4.088,4.088,0,0,1,1.413,1.738l.114.265Z" transform="translate(-376.37 -574.045)" fill="#2f2e41"/><circle cx="4.198" cy="4.198" r="4.198" transform="translate(107.247 121.636)" fill="#2f2e41"/><ellipse cx="3.721" cy="2.91" rx="3.721" ry="2.91" transform="translate(104.194 121.35)" fill="#2f2e41"/><ellipse cx="0.62" cy="1.097" rx="0.62" ry="1.097" transform="translate(108.678 127.741)" fill="#a0616a"/><path d="M518.176,628.316v7.6h-2.194v-7.6a.511.511,0,0,1,.511-.511h1.172A.511.511,0,0,1,518.176,628.316Z" transform="translate(-407.829 -509.126)" fill="#ff6584"/><circle cx="2.385" cy="2.385" r="2.385" transform="translate(106.866 125.929)" fill="#6c63ff"/><circle cx="1.049" cy="1.049" r="1.049" transform="translate(108.201 127.264)" fill="#f2f2f2"/><circle cx="0.286" cy="0.286" r="0.286" transform="translate(108.964 128.028)" fill="#ff6584"/><path d="M518.176,628.316v.347h-2.194v-.347a.511.511,0,0,1,.511-.511h1.172A.511.511,0,0,1,518.176,628.316Z" transform="translate(-407.829 -509.126)" opacity="0.1"/><path d="M581.459,700.809l5.617-5.617a1.048,1.048,0,0,1,1.482,0l5.053,5.053a1.048,1.048,0,0,1,0,1.482l-5.248,5.248a1.048,1.048,0,0,1-1.426.052l-5.422-4.684a1.048,1.048,0,0,1-.056-1.534Z" transform="translate(-496.598 -562.798)" fill="#2f2e41"/><path d="M458.708,675.245l4.913-4.913,4.055,4.055-4.722,4.722Z" transform="translate(-372.258 -536.342)" fill="#f2f2f2"/><circle cx="2.348" cy="2.348" r="2.348" transform="translate(88.681 135.983)" fill="#6c63ff"/><path d="M607.194,718.726a2.348,2.348,0,0,1,2.392-3.924,2.348,2.348,0,1,0-2.131,4.136A2.362,2.362,0,0,1,607.194,718.726Z" transform="translate(-517.21 -578.394)" opacity="0.1"/><path d="M607.515,723.5a1.463,1.463,0,0,1-.133,1.665,1.059,1.059,0,0,1-1.415-.017c-.28-.263-.026-.48.4-.935S607.235,723.242,607.515,723.5Z" transform="translate(-515.332 -585.64)" fill="#f2f2f2"/><circle cx="0.696" cy="0.696" r="0.696" transform="translate(89.104 137.673)" fill="#2f2e41"/><circle cx="0.696" cy="0.696" r="0.696" transform="translate(90.355 136.343)" fill="#2f2e41"/><circle cx="0.174" cy="0.174" r="0.174" transform="translate(89.626 138.195)" fill="#f2f2f2"/><circle cx="0.087" cy="0.087" r="0.087" transform="translate(89.638 137.854)" fill="#f2f2f2"/><circle cx="0.087" cy="0.087" r="0.087" transform="translate(90.889 136.523)" fill="#f2f2f2"/><circle cx="0.174" cy="0.174" r="0.174" transform="translate(90.877 136.864)" fill="#f2f2f2"/><path d="M921.546,379.464v23.129a.6.6,0,0,1-.892.549L902.32,391.578a.655.655,0,0,1,0-1.09l18.334-11.564a.59.59,0,0,1,.892.541Z" transform="translate(-888.365 -309.926)" fill="#f2f2f2"/><path d="M305.18,135.9l.332-3.476,1.631-7.582,3.594-16.71L294.81,78.989l15.867,25.442L310.5,93.843,299.527,72.761l10.932,18.278-.31-19.045L298.4,55.211,310.1,69l-.192-34.776v-.148l.006.15,1.157,44.1,11.9-18.214L311.215,82.062l1.113,21.272.034-.564,13.776-19.251L312.4,104.765l.138,2.658.026.042-.012.218,3.526,17.154,2.187,10.636q-.036.579-.066,1.155c-2,.044-11.7-.028-13.007-.014Z" transform="translate(-171.581 -34.075)" fill="#3f3d56"/></svg>